<svg id="Layer_1" data-name="Layer 1" xmlns="http://www.w3.org/2000/svg" viewBox="0 0 448 512"><title>Artboard 1</title><path d="M448,112V464a48,48,0,0,1-48,48H48A48,48,0,0,1,0,464V112A48,48,0,0,1,48,64H96V12A12,12,0,0,1,108,0h40a12,12,0,0,1,12,12V64H288V12A12,12,0,0,1,300,0h40a12,12,0,0,1,12,12V64h48A48,48,0,0,1,448,112ZM400,458V160H48V458a6,6,0,0,0,6,6H394A6,6,0,0,0,400,458ZM218.91,445c15.91,0,28.82-14.94,28.82-33.37H190.09C190.09,430.06,203,445,218.91,445Zm97-78.07c-8.7-10.83-25-27.11-25-80.46,0-40.52-24.54-73-57.64-80.91V194.69c0-9.21-6.45-16.69-14.41-16.69s-14.41,7.47-14.41,16.69v10.87c-33.09,8-57.64,40.39-57.64,80.91,0,53.35-16.29,69.63-25,80.46A17.78,17.78,0,0,0,118,378.25c0,8.55,5.85,16.69,14.46,16.69h172.9c8.61,0,14.42-8.14,14.46-16.69A17.77,17.77,0,0,0,315.95,366.93Z"/></svg>