<svg xmlns="http://www.w3.org/2000/svg" viewBox="0 0 512 512"><path d="M483.93,47.29C457.21,69,428.2,89.75,394.38,98.45a104.64,104.64,0,0,1-61-2.83C300.84,84.12,274,61,241.56,49.4a117.16,117.16,0,0,0-59.95-5.83C151.93,48.43,124.87,62.83,100,79.15q-.15,130.13,0,260.27c25.46-16.64,53.19-31.38,83.63-35.89,21.93-3.39,44.66.06,65,8.87,27.48,11.37,51.18,30.14,78.81,41.21,19.33,8,41,10.64,61.53,6.31,36-7.58,66.9-29.44,95-52.29Q484.2,177.47,483.93,47.29Z"/><path d="M73.5,426.78V73.22a35,35,0,1,0-40,0V426.78a35,35,0,1,0,40,0Z"/></svg>